<svg width="1800" height="1000" viewBox="0 0 1800 1000" fill="none" xmlns="http://www.w3.org/2000/svg">
  <defs>
    <linearGradient id="d0" x1="110" y1="92" x2="1698" y2="934" gradientUnits="userSpaceOnUse">
      <stop stop-color="#6B3A52"/>
      <stop offset="0.5" stop-color="#4D2A3C"/>
      <stop offset="1" stop-color="#2C1A27"/>
    </linearGradient>
    <radialGradient id="d1" cx="0" cy="0" r="1" gradientUnits="userSpaceOnUse" gradientTransform="translate(1410 264) rotate(132) scale(612 426)">
      <stop stop-color="#E9CAD9" stop-opacity="0.7"/>
      <stop offset="1" stop-color="#E9CAD9" stop-opacity="0"/>
    </radialGradient>
    <filter id="d2" x="0" y="0" width="1800" height="1000" filterUnits="userSpaceOnUse" color-interpolation-filters="sRGB">
      <feTurbulence type="fractalNoise" baseFrequency="0.74" numOctaves="2" stitchTiles="stitch"/>
      <feColorMatrix type="saturate" values="0"/>
      <feComponentTransfer>
        <feFuncA type="table" tableValues="0 0.08"/>
      </feComponentTransfer>
    </filter>
  </defs>
  <rect width="1800" height="1000" fill="url(#d0)"/>
  <rect width="1800" height="1000" fill="url(#d1)"/>
  <rect x="176" y="116" width="488" height="768" rx="64" fill="rgba(255,255,255,0.18)"/>
  <rect x="216" y="178" width="408" height="640" rx="42" fill="rgba(255,255,255,0.22)"/>
  <rect x="260" y="256" width="318" height="104" rx="24" fill="rgba(255,255,255,0.42)"/>
  <rect x="260" y="390" width="246" height="82" rx="20" fill="rgba(255,255,255,0.34)"/>
  <rect x="318" y="510" width="260" height="82" rx="20" fill="rgba(255,255,255,0.34)"/>
  <ellipse cx="1368" cy="524" rx="364" ry="384" fill="rgba(235,195,214,0.42)"/>
  <rect x="886" y="750" width="740" height="146" rx="30" fill="rgba(255,255,255,0.14)"/>
  <rect x="946" y="798" width="448" height="12" rx="6" fill="rgba(255,255,255,0.7)"/>
  <rect x="946" y="832" width="314" height="10" rx="5" fill="rgba(255,255,255,0.46)"/>
  <rect width="1800" height="1000" fill="url(#d2)"/>
</svg>
