<svg width="1800" height="1200" viewBox="0 0 1800 1200" fill="none" xmlns="http://www.w3.org/2000/svg">
  <defs>
    <linearGradient id="bg" x1="108" y1="86" x2="1688" y2="1114" gradientUnits="userSpaceOnUse">
      <stop stop-color="#8D6E80"/>
      <stop offset="0.48" stop-color="#705768"/>
      <stop offset="1" stop-color="#4A3746"/>
    </linearGradient>
    <radialGradient id="light" cx="0" cy="0" r="1" gradientUnits="userSpaceOnUse" gradientTransform="translate(360 242) rotate(31) scale(636 418)">
      <stop stop-color="#F7EAF1" stop-opacity="0.72"/>
      <stop offset="1" stop-color="#F7EAF1" stop-opacity="0"/>
    </radialGradient>
    <filter id="grain" x="0" y="0" width="1800" height="1200" filterUnits="userSpaceOnUse" color-interpolation-filters="sRGB">
      <feTurbulence type="fractalNoise" baseFrequency="0.74" numOctaves="2" stitchTiles="stitch"/>
      <feColorMatrix type="saturate" values="0"/>
      <feComponentTransfer><feFuncA type="table" tableValues="0 0.06"/></feComponentTransfer>
    </filter>
  </defs>
  <rect width="1800" height="1200" fill="url(#bg)"/>
  <rect width="1800" height="1200" fill="url(#light)"/>
  <rect x="88" y="140" width="472" height="320" rx="36" fill="rgba(249,240,245,0.32)"/>
  <rect x="126" y="178" width="394" height="244" rx="28" fill="rgba(249,241,246,0.46)"/>
  <ellipse cx="1388" cy="468" rx="246" ry="334" fill="rgba(238,216,227,0.6)"/>
  <ellipse cx="1528" cy="540" rx="124" ry="242" fill="rgba(228,201,215,0.46)"/>
  <path d="M1160 798C1246 882 1398 928 1608 904C1702 894 1772 852 1800 822" stroke="rgba(255,255,255,0.24)" stroke-width="16" stroke-linecap="round"/>
  <rect x="136" y="804" width="664" height="220" rx="34" fill="rgba(255,255,255,0.14)"/>
  <rect x="194" y="878" width="352" height="14" rx="7" fill="rgba(255,255,255,0.74)"/>
  <rect x="194" y="914" width="446" height="10" rx="5" fill="rgba(255,255,255,0.54)"/>
  <rect x="194" y="944" width="258" height="10" rx="5" fill="rgba(255,255,255,0.44)"/>
  <rect width="1800" height="1200" fill="url(#grain)"/>
</svg>
