<svg width="1800" height="1200" viewBox="0 0 1800 1200" fill="none" xmlns="http://www.w3.org/2000/svg">
  <defs>
    <linearGradient id="bg" x1="106" y1="84" x2="1688" y2="1116" gradientUnits="userSpaceOnUse">
      <stop stop-color="#8E6F80"/>
      <stop offset="0.48" stop-color="#705768"/>
      <stop offset="1" stop-color="#4A3746"/>
    </linearGradient>
    <radialGradient id="light" cx="0" cy="0" r="1" gradientUnits="userSpaceOnUse" gradientTransform="translate(364 246) rotate(31) scale(640 422)">
      <stop stop-color="#F7EAF1" stop-opacity="0.74"/>
      <stop offset="1" stop-color="#F7EAF1" stop-opacity="0"/>
    </radialGradient>
    <filter id="grain" x="0" y="0" width="1800" height="1200" filterUnits="userSpaceOnUse" color-interpolation-filters="sRGB">
      <feTurbulence type="fractalNoise" baseFrequency="0.74" numOctaves="2" stitchTiles="stitch"/>
      <feColorMatrix type="saturate" values="0"/>
      <feComponentTransfer>
        <feFuncA type="table" tableValues="0 0.06"/>
      </feComponentTransfer>
    </filter>
  </defs>
  <rect width="1800" height="1200" fill="url(#bg)"/>
  <rect width="1800" height="1200" fill="url(#light)"/>
  <rect x="90" y="138" width="468" height="324" rx="36" fill="rgba(249,240,245,0.32)"/>
  <rect x="130" y="178" width="388" height="246" rx="28" fill="rgba(249,241,246,0.46)"/>
  <ellipse cx="1390" cy="474" rx="248" ry="338" fill="rgba(238,216,227,0.6)"/>
  <ellipse cx="1528" cy="542" rx="124" ry="244" fill="rgba(228,201,215,0.46)"/>
  <path d="M1162 800C1248 884 1398 930 1608 906C1704 894 1774 850 1800 818" stroke="rgba(255,255,255,0.24)" stroke-width="16" stroke-linecap="round"/>
  <rect x="134" y="804" width="662" height="220" rx="34" fill="rgba(255,255,255,0.14)"/>
  <rect x="192" y="878" width="352" height="14" rx="7" fill="rgba(255,255,255,0.74)"/>
  <rect x="192" y="914" width="446" height="10" rx="5" fill="rgba(255,255,255,0.54)"/>
  <rect x="192" y="944" width="258" height="10" rx="5" fill="rgba(255,255,255,0.44)"/>
  <rect width="1800" height="1200" fill="url(#grain)"/>
</svg>
