<svg width="1600" height="1000" viewBox="0 0 1600 1000" fill="none" xmlns="http://www.w3.org/2000/svg">
  <defs>
    <linearGradient id="bg" x1="92" y1="64" x2="1508" y2="936" gradientUnits="userSpaceOnUse">
      <stop stop-color="#6A3A51"/>
      <stop offset="0.48" stop-color="#583247"/>
      <stop offset="1" stop-color="#3E2434"/>
    </linearGradient>
    <radialGradient id="light" cx="0" cy="0" r="1" gradientUnits="userSpaceOnUse" gradientTransform="translate(340 222) rotate(28) scale(520 332)">
      <stop stop-color="#F3DAE5" stop-opacity="0.46"/>
      <stop offset="1" stop-color="#F3DAE5" stop-opacity="0"/>
    </radialGradient>
    <radialGradient id="phoneGlow" cx="0" cy="0" r="1" gradientUnits="userSpaceOnUse" gradientTransform="translate(1188 506) rotate(86) scale(262 198)">
      <stop stop-color="#F6E8EF" stop-opacity="0.72"/>
      <stop offset="1" stop-color="#F6E8EF" stop-opacity="0"/>
    </radialGradient>
    <filter id="grain" x="0" y="0" width="1600" height="1000" filterUnits="userSpaceOnUse" color-interpolation-filters="sRGB">
      <feTurbulence type="fractalNoise" baseFrequency="0.78" numOctaves="2" stitchTiles="stitch"/>
      <feColorMatrix type="saturate" values="0"/>
      <feComponentTransfer>
        <feFuncA type="table" tableValues="0 0.05"/>
      </feComponentTransfer>
    </filter>
  </defs>

  <rect width="1600" height="1000" fill="url(#bg)"/>
  <rect width="1600" height="1000" fill="url(#light)"/>

  <rect x="1008" y="184" width="264" height="540" rx="42" fill="rgba(255,255,255,0.22)"/>
  <rect x="1032" y="208" width="216" height="492" rx="30" fill="rgba(243,230,237,0.42)"/>
  <rect x="1056" y="258" width="168" height="76" rx="16" fill="rgba(255,255,255,0.72)"/>
  <rect x="1056" y="356" width="144" height="58" rx="14" fill="rgba(255,255,255,0.52)"/>
  <rect x="1080" y="440" width="144" height="58" rx="14" fill="rgba(178,226,198,0.52)"/>
  <rect x="1056" y="520" width="152" height="58" rx="14" fill="rgba(255,255,255,0.46)"/>

  <ellipse cx="1166" cy="498" rx="244" ry="294" fill="url(#phoneGlow)"/>

  <rect x="136" y="682" width="686" height="194" rx="30" fill="rgba(255,255,255,0.14)"/>
  <rect x="188" y="754" width="330" height="12" rx="6" fill="rgba(255,255,255,0.74)"/>
  <rect x="188" y="786" width="438" height="10" rx="5" fill="rgba(255,255,255,0.5)"/>
  <rect x="188" y="814" width="250" height="10" rx="5" fill="rgba(255,255,255,0.44)"/>

  <rect width="1600" height="1000" fill="url(#grain)"/>
</svg>
